<?xml version="1.0" encoding="UTF-8"?>
<svg width="24px" height="15px" viewBox="0 0 24 15" version="1.1" xmlns="http://www.w3.org/2000/svg" xmlns:xlink="http://www.w3.org/1999/xlink">
    <!-- Generator: Sketch 42 (36781) - http://www.bohemiancoding.com/sketch -->
    <title>google-plus</title>
    <desc>Created with Sketch.</desc>
    <defs></defs>
    <g id="Page-1" stroke="none" stroke-width="1" fill="none" fill-rule="evenodd">
        <g id="Desktop-Landscape" transform="translate(-229.000000, -842.000000)" fill-rule="nonzero" fill="#D64631">
            <g id="Footer" transform="translate(160.000000, 790.000000)">
                <g id="google-plus" transform="translate(69.000000, 52.000000)">
                    <g id="Group">
                        <path d="M7.98642857,6.63857143 L7.98642857,9.13428571 L12.1114286,9.13428571 C11.9464286,10.2057143 10.8657143,12.2728571 7.98642857,12.2728571 C5.50428571,12.2728571 3.47714286,10.215 3.47714286,7.67928571 C3.47714286,5.14357143 5.50428571,3.08571429 7.98642857,3.08571429 C9.40142857,3.08571429 10.3435714,3.68857143 10.8835714,4.20642857 L12.8564286,2.305 C11.5885714,1.12214286 9.94571429,0.403571429 7.98571429,0.403571429 C3.96357143,0.407857143 0.713571429,3.65785714 0.713571429,7.68071429 C0.713571429,11.7035714 3.96357143,14.9528571 7.98571429,14.9528571 C12.1821429,14.9528571 14.9678571,12.0021429 14.9678571,7.84571429 C14.9678571,7.36785714 14.9142857,7.00214286 14.8514286,6.64 L7.985,6.64 L7.98642857,6.63857143 Z" id="Shape"></path>
                        <polygon id="Shape" points="23.5714286 6.42857143 21.4285714 6.42857143 21.4285714 4.28571429 19.2857143 4.28571429 19.2857143 6.42857143 17.1428571 6.42857143 17.1428571 8.57142857 19.2857143 8.57142857 19.2857143 10.7142857 21.4285714 10.7142857 21.4285714 8.57142857 23.5714286 8.57142857"></polygon>
                    </g>
                </g>
            </g>
        </g>
    </g>
</svg>