<?xml version="1.0" encoding="UTF-8"?>
<svg width="19px" height="15px" viewBox="0 0 19 15" version="1.1" xmlns="http://www.w3.org/2000/svg" xmlns:xlink="http://www.w3.org/1999/xlink">
    <!-- Generator: Sketch 42 (36781) - http://www.bohemiancoding.com/sketch -->
    <title>twitter</title>
    <desc>Created with Sketch.</desc>
    <defs></defs>
    <g id="Page-1" stroke="none" stroke-width="1" fill="none" fill-rule="evenodd">
        <g id="Desktop-Landscape" transform="translate(-190.000000, -842.000000)" fill-rule="nonzero" fill="#2AA0F8">
            <g id="Footer" transform="translate(160.000000, 790.000000)">
                <g id="twitter" transform="translate(30.000000, 52.000000)">
                    <path d="M18.3333333,1.70833333 C17.6805556,2 16.9755556,2.19444444 16.2394444,2.28111111 C16.9927778,1.82944444 17.5694444,1.11444444 17.8433333,0.263888889 C17.1383333,0.680555556 16.3572222,0.986111111 15.5272222,1.14944444 C14.8605556,0.441111111 13.9127778,0 12.8638889,0 C10.85,0 9.21777778,1.63222222 9.21777778,3.64611111 C9.21777778,3.93055556 9.24888889,4.20833333 9.31166667,4.47611111 C6.28055556,4.32333333 3.59277778,2.87166667 1.79444444,0.663888889 C1.48166667,1.20222222 1.30166667,1.83055556 1.30166667,2.49722222 C1.30166667,3.76111111 1.94388889,4.87888889 2.92333333,5.53222222 C2.32611111,5.515 1.76388889,5.34833333 1.27055556,5.07722222 L1.27055556,5.12222222 C1.27055556,6.88944444 2.52777778,8.36555556 4.19777778,8.69833333 C3.89222222,8.78166667 3.56944444,8.82666667 3.23611111,8.82666667 C3,8.82666667 2.77444444,8.80222222 2.54888889,8.76055556 C3.01444444,10.2083333 4.36166667,11.2638889 5.955,11.2955556 C4.705,12.2744444 3.13555556,12.8583333 1.42388889,12.8583333 C1.12888889,12.8583333 0.840555556,12.8411111 0.552222222,12.8061111 C2.17055556,13.8444444 4.08666667,14.445 6.14611111,14.445 C12.8544444,14.445 16.5244444,8.88611111 16.5244444,4.06666667 C16.5244444,3.90722222 16.5211111,3.75055556 16.5138889,3.59444444 C17.2255556,3.08388889 17.8438889,2.44166667 18.3333333,1.70888889 L18.3333333,1.70833333 Z" id="Shape"></path>
                </g>
            </g>
        </g>
    </g>
</svg>